HIERARCHY
ROOT root
{
	OFFSET 0.000000 0.000000 0.000000
	CHANNELS 6 Xposition Yposition Zposition Zrotation Yrotation Xrotation
	JOINT lhip
	{
		OFFSET 0.058581 -0.082280 -0.017664
		CHANNELS 3 Zrotation Yrotation Xrotation
		JOINT lknee
		{
			OFFSET 0.043451 -0.386469 0.008037
			CHANNELS 3 Zrotation Yrotation Xrotation
			JOINT lankle
			{
				OFFSET -0.014790 -0.426874 -0.037428
				CHANNELS 3 Zrotation Yrotation Xrotation
				JOINT ltoe
				{
					OFFSET 0.041054 -0.060286 0.122042
					CHANNELS 3 Zrotation Yrotation Xrotation
					End Site
					{
						OFFSET 0.000000 0.000000 0.000000
					}
				}
			}
		}
	}
	JOINT rhip
	{
		OFFSET -0.060310 -0.090513 -0.013543
		CHANNELS 3 Zrotation Yrotation Xrotation
		JOINT rknee
		{
			OFFSET -0.043257 -0.383688 -0.004843
			CHANNELS 3 Zrotation Yrotation Xrotation
			JOINT rankle
			{
				OFFSET 0.019056 -0.420046 -0.034562
				CHANNELS 3 Zrotation Yrotation Xrotation
				JOINT rtoe
				{
					OFFSET -0.034840 -0.062106 0.130323
					CHANNELS 3 Zrotation Yrotation Xrotation
					End Site
					{
						OFFSET 0.000000 0.000000 0.000000
					}
				}
			}
		}
	}
	JOINT lowerback
	{
		OFFSET 0.004439 0.124404 -0.038385
		CHANNELS 3 Zrotation Yrotation Xrotation
		JOINT upperback
		{
			OFFSET 0.004488 0.137956 0.026820
			CHANNELS 3 Zrotation Yrotation Xrotation
			JOINT chest
			{
				OFFSET -0.002265 0.056032 0.002855
				CHANNELS 3 Zrotation Yrotation Xrotation
				JOINT lowerneck
				{
					OFFSET -0.013390 0.211636 -0.033468
					CHANNELS 3 Zrotation Yrotation Xrotation
					JOINT upperneck
					{
						OFFSET 0.010113 0.088937 0.050410
						CHANNELS 3 Zrotation Yrotation Xrotation
						End Site
						{
							OFFSET 0.000000 0.000000 0.000000
						}
					}
				}
				JOINT lclavicle
				{
					OFFSET 0.071702 0.114000 -0.018898
					CHANNELS 3 Zrotation Yrotation Xrotation
					JOINT lshoulder
					{
						OFFSET 0.122921 0.045205 -0.019046
						CHANNELS 3 Zrotation Yrotation Xrotation
						JOINT lelbow
						{
							OFFSET 0.255332 -0.015649 -0.022946
							CHANNELS 3 Zrotation Yrotation Xrotation
							JOINT lwrist
							{
								OFFSET 0.265709 0.012698 -0.007375
								CHANNELS 3 Zrotation Yrotation Xrotation
								End Site
								{
									OFFSET 0.000000 0.000000 0.000000
								}
							}
						}
					}
				}
				JOINT rclavicle
				{
					OFFSET -0.082954 0.112472 -0.023707
					CHANNELS 3 Zrotation Yrotation Xrotation
					JOINT rshoulder
					{
						OFFSET -0.113228 0.046853 -0.008472
						CHANNELS 3 Zrotation Yrotation Xrotation
						JOINT relbow
						{
							OFFSET -0.260127 -0.014369 -0.031269
							CHANNELS 3 Zrotation Yrotation Xrotation
							JOINT rwrist
							{
								OFFSET -0.269108 0.006794 -0.006027
								CHANNELS 3 Zrotation Yrotation Xrotation
								End Site
								{
									OFFSET 0.000000 0.000000 0.000000
								}
							}
						}
					}
				}
			}
		}
	}
}
MOTION
Frames: 5
Frame Time: 0.033333
-0.636172 0.624276 1.026081 81.744533 -2.923217 82.407787 3.478630 -1.169518 1.531235 -6.318787 -2.508660 33.104487 3.637340 7.554427 -18.425183 0.000000 -0.000000 0.000000 -1.626580 -6.586193 8.367779 -0.114013 -11.504981 1.884560 -0.001735 -10.652809 -9.772705 0.000000 -0.000000 0.000000 3.863048 1.069762 4.517408 3.779208 -6.326846 7.314291 -0.277617 -2.092638 0.440699 6.036568 -14.973972 -4.743730 4.049696 -17.779106 1.301217 -24.874724 -2.584631 8.073126 -57.371230 -7.862172 9.877880 7.354140 -32.114530 14.377731 -22.086034 -15.432411 -12.979795 19.712015 1.813465 1.868555 55.679991 0.969632 3.454854 -29.416938 33.077562 -12.537775 16.378491 7.095991 -12.827413 
-0.644849 0.627066 1.025988 82.931401 -2.219227 82.705606 3.632684 -1.146595 3.026261 -6.707510 -3.812938 33.232809 1.562978 7.594058 -20.439233 0.000000 -0.000000 0.000000 -0.814253 -6.221450 7.555214 0.052800 -12.242246 1.792756 0.524754 -11.461321 -9.597003 0.000000 -0.000000 0.000000 3.739928 0.281637 3.876173 3.778287 -6.347916 7.163482 -0.032046 -2.904302 0.188090 5.636452 -14.997342 -4.064100 4.130232 -17.275808 1.103875 -25.441286 -2.105319 7.862638 -56.711195 -7.718740 10.264107 7.246177 -31.973238 13.640941 -20.818381 -16.259290 -12.666256 19.870407 1.769165 2.431406 56.033683 0.463673 3.914986 -24.090438 29.930909 -12.784892 18.150336 9.040609 -21.589161 
-0.654855 0.630604 1.025914 83.870798 -1.540522 82.725321 3.753503 -1.266533 4.760380 -6.693123 -4.954143 32.615740 0.904723 7.739283 -21.531717 0.000000 -0.000000 0.000000 -0.208057 -6.004566 6.880982 0.230402 -12.928594 1.871811 0.584750 -11.932464 -9.247292 0.000000 -0.000000 0.000000 3.465258 -0.075657 3.771855 3.900047 -6.443305 7.349246 0.117116 -3.392053 -0.132172 5.479723 -14.930052 -3.686410 4.343157 -17.323639 0.659588 -25.785325 -2.184822 7.778211 -56.253068 -7.939076 10.153818 7.457692 -32.215408 13.166346 -20.154372 -16.370771 -12.254562 20.107685 1.758175 2.750878 56.839081 -0.379251 3.559769 -24.412083 27.284354 -13.696383 17.674451 8.858175 -21.691557 
-0.668458 0.636221 1.025066 85.195441 -0.674079 82.838629 3.995293 -1.558207 6.488271 -6.095159 -6.306249 30.734610 1.068953 8.087975 -21.268273 0.000000 -0.000000 0.000000 0.519661 -5.887868 5.880351 0.312241 -13.799453 1.957602 0.475718 -12.438690 -8.656921 0.000000 -0.000000 0.000000 3.056236 -0.440851 3.729746 3.901452 -6.529757 7.698387 0.227829 -3.614676 -0.185142 5.522726 -14.959510 -3.692537 4.842679 -17.661897 0.074525 -25.630522 -2.627574 7.826612 -56.000563 -8.835359 10.340449 7.753735 -32.888926 12.877300 -19.196260 -16.458119 -12.090637 20.138027 1.399897 2.742381 58.240661 -1.560338 3.043600 -24.570884 24.539062 -14.079769 17.210714 8.537881 -22.111751 
-0.677475 0.640323 1.024515 86.017165 -0.168125 83.021060 4.272263 -1.534448 7.302259 -5.613408 -7.156653 28.796662 0.750604 7.838706 -19.875681 0.000000 -0.000000 0.000000 0.902517 -5.842363 5.215632 0.397013 -14.390563 1.769365 0.316075 -12.724021 -8.075323 0.000000 -0.000000 0.000000 2.811842 -0.682554 3.831158 3.834908 -6.532281 7.803195 0.268932 -3.724045 -0.301085 5.454777 -14.937274 -3.612421 5.018360 -17.847849 -0.002859 -25.558193 -2.785844 7.808129 -55.756360 -9.398512 10.427826 7.791676 -33.474594 12.898696 -18.649762 -16.431566 -11.563055 20.085636 1.148652 2.766061 59.173248 -2.186729 2.833893 -24.624828 23.006530 -14.200312 16.970459 8.462093 -22.232073 
